Patient4_TMGait_0pt4_03_left_25_EMG.mot
version=1
nRows=33
nColumns=33
inDegrees=no
endheader
time	1LAddLong	2LGlutMax	3LGlutMed	4LIliopsoas	5LSemiMemb	6LBicFemLong	7LRecFem	8LVastMed	9LVastLat	10LGasMed	11LTibAnt	12lTibPost	13LPeroneusLong	14LSol	15LExtDigLong	16LFlexDigLong	17RAddLong	18RGlutMax	19RGlutMed	20RIliopsoas	21RSemiMemb	22RBicFemLong	23RRecFem	24RVastMed	25RVastLat	26RGasMed	27RTibAnt	28RTibPost	29RPeroneusLong	30RSol	31RExtDigLong	32RFlexDigLong
33.815	0.001068	0.057678	0.077972	0.00061	-0.0383	-0.11337	-0.036163	0.002594	-0.049286	-0.25848	0.003052	-0.039673	-0.001678	0.001221	-0.056763	-0.010681	0.058899	-0.76019	-0.51361	-0.21606	-0.12329	0.015717	-0.082703	-0.018005	0.054932	-0.00946	0.032196	0.000458	-0.7457	-0.000153	-0.005188	-0.007935
33.816	-0.001526	0.082245	0.052338	0.005341	0.033417	-0.12207	-0.040131	-0.003357	-0.055542	-0.1857	0.003052	-0.012817	-0.020599	-0.41962	-0.046997	-0.040436	0.096283	-0.72128	-0.28122	-0.088043	-0.036926	0.042114	-0.075226	0.025024	0.032959	-0.00061	0.066528	0.003052	-0.78568	-0.032349	-0.001068	-0.009003
33.817	-0.000153	0.083008	0.056	0.017395	0.021362	-0.019073	-0.043488	0.002441	-0.055847	0.28153	0.005798	0.042572	-0.001678	-0.24002	-0.036316	-0.028381	0.11627	-0.62576	-0.21683	0.063019	-0.019073	-0.00061	-0.10162	0.008392	-0.025024	-0.001526	-0.021667	0.003357	0.88577	-0.040588	-0.006561	-0.007019
33.818	-0.003052	0.14908	0.059204	0.01297	0.001831	0.021362	-0.075531	0.002136	-0.057983	0.5809	0.016785	-0.040588	-0.014648	-0.089417	-0.034637	0.053558	0.1593	-0.56717	-0.32288	0.20691	-0.068817	-0.044861	-0.031738	-0.058746	0.055847	-0.007324	-0.031128	0.006866	0.86426	-0.031433	-0.001831	-0.009003
33.819	-0.004578	0.12466	0.09079	-0.004883	-0.003357	0.036774	-0.083771	0.002136	-0.050201	0.063171	0.007172	-0.053864	-0.072479	-0.001373	-0.020142	0.069275	0.1535	-0.53757	-0.38513	0.26169	-0.2388	-0.047302	-0.049591	-0.10757	0.14221	-0.010834	-0.03067	0.007477	0.78201	0.015717	-0.001221	-0.014343
33.82	0.00351	0.082397	0.066071	0.007782	0.000916	0.028839	-0.05188	0.007324	-0.050659	-0.025177	0.008392	-0.014191	-0.11566	0.12283	0.002899	-0.014343	0.064087	-0.47913	-0.022736	0.20004	-0.17502	-0.018463	-0.052643	0.084229	0.1918	-0.009003	0.018158	-0.001068	0.1236	0.063477	-0.002136	-0.00885
33.821	0.004883	0.13092	0.071716	0.012207	0.002136	0.046387	-0.070496	0.001221	-0.04303	-0.028992	0.007172	-0.010223	-0.09903	0.18662	0.00473	-0.018768	-0.10101	-0.327	-0.039063	0.15259	-0.06546	0.027313	-0.23483	0.24445	0.14618	-0.007477	0.018463	0.006561	0.09613	-0.007172	-0.002289	-0.014343
33.822	0.006104	0.13168	0.072937	-0.002289	-0.017242	0.044556	-0.08606	0.005188	-0.056458	-0.13001	0.001678	-0.009308	0.031433	0.2359	0.003967	-0.017242	-0.168	-0.29694	-0.40894	0.13809	0.01709	0.00946	-0.23239	0.19943	0.060883	-0.015259	-0.025177	0.011444	0.24155	-0.016174	-0.002899	-0.021667
33.823	0.01236	0.16342	0.10529	0.006866	-0.028992	0.010223	-0.09964	0.006866	-0.038452	-0.10025	0.00473	0.008392	0.013733	0.13611	0.008392	-0.00412	-0.12405	-0.23361	-0.73608	0.059509	0.36774	-0.007019	-0.21393	0.093536	-0.027466	-0.004883	0.002136	0.006104	0.05661	-0.028381	-0.003662	-0.015106
33.824	0.01297	0.15884	0.121	-0.009003	-0.004272	-0.033569	-0.076141	0.002899	-0.051117	-0.12589	0.007782	0.011139	-0.014343	0.13702	0.007172	-0.006256	-0.067139	-0.047302	-0.63156	-0.10468	0.43121	-0.006561	-0.30655	-0.072937	-0.016937	0.000458	0.042267	0.008392	0.002747	-0.025482	-0.002289	-0.019073
33.825	0.004425	0.15274	0.078583	-0.007629	0.018463	-0.050201	-0.069733	0.004272	-0.05661	-0.17624	0.002441	0.009613	0.05188	0.16541	0.009918	0.01236	-0.025635	-0.006866	-0.11841	-0.20966	0.29129	-0.061188	-0.33539	-0.28793	0.079498	0.000763	0.058136	0.008087	-0.058746	-0.028839	-0.00412	-0.018768
33.826	0.004272	0.15289	0.085144	-0.00061	0.024719	-0.047913	-0.031891	0.00824	-0.055542	-0.059662	0.002747	0.011292	0.053406	0.063934	0.019226	0.006104	-0.012512	-0.00412	0.023346	-0.19028	0.22446	-0.068054	-0.40543	-0.38498	0.12146	-0.001526	0.028381	0.00946	-0.077667	-0.027008	-0.006714	-0.009766
33.827	-0.001526	0.1622	0.092773	0.006866	-0.001373	-0.026245	-0.035553	0.003815	-0.04364	0.27588	0.007324	0.001221	0.031433	-0.15137	0.014343	0.002289	0.01297	0.062408	-0.071259	-0.065765	0.1207	-0.023193	-0.2739	-0.34271	0.071716	0.006409	0.005798	0.011749	0.029755	-0.034637	-0.010376	-0.007629
33.828	0.003815	0.15411	0.1239	0.006714	-0.022583	-0.005798	-0.041199	0.005035	-0.045166	0.24674	0.003204	0.022736	0.011597	-0.063171	0.02533	-0.005798	-0.00473	0.1413	0.46829	0.011597	0.033264	0.053101	-0.22766	-0.19501	0.057526	-0.003967	0.0383	0.004578	-0.096893	-0.015106	-0.005188	-0.016479
33.829	0.000305	0.15717	0.1181	0.008087	-0.046539	0.000305	-0.071716	0.005188	-0.032349	-0.015564	-0.003357	0.005341	0.035095	-0.028687	0.025787	-0.004425	0.006256	0.24628	0.43778	0.020905	0.12695	0.027771	-0.1265	-0.0914	0.034943	-0.001678	0.068512	0.009003	-0.16403	-0.034332	-0.002594	-0.010986
33.83	-0.002136	0.19989	0.048676	-0.001373	-0.061646	0.06012	-0.087738	0.006104	-0.057831	0.093994	-0.006866	-0.005798	0.003357	-0.10986	0.01358	-0.001221	0.002594	0.2536	0.28229	-0.010529	0.40329	0.029602	-0.16815	-0.066071	-0.013275	-0.002289	0.039368	0.010834	-0.036469	-0.03479	0.001373	-0.005646
33.831	0.000305	0.18295	-0.009308	-0.001984	-0.075684	0.055084	-0.090485	0.003967	-0.048981	0.41519	0.002747	0.01297	0.008392	-0.22705	0.010986	0.000458	0.013885	0.25543	-0.023499	0.023651	0.29953	-0.03479	-0.27298	-0.027313	0.014343	-0.002289	0.010681	0.015106	0.000153	-0.03006	-0.001831	-0.013733
33.832	0.001526	0.18677	-0.005188	0.006256	-0.042267	-0.022888	-0.085297	0.008392	-0.03891	0.94315	0.00061	0.019226	-0.005035	-0.18097	0.0177	0.006256	0.026855	0.20416	-0.71381	-0.01358	0.15625	-0.059204	-0.40497	0.06073	0.12512	-0.009003	0.031281	0.006866	-0.06546	-0.032196	-0.00351	-0.012817
33.833	-0.005798	0.23102	0.034637	0.019989	-0.006256	0.018921	-0.065918	0.009308	-0.040131	0.13107	0.000153	0.001526	-0.020599	-0.057526	0.012207	0.004883	0.054474	0.18601	-0.74539	-0.027771	0.11963	-0.077209	-0.33371	-0.11932	0.16235	-0.004883	0.009003	0.009003	-0.001984	-0.037537	-0.002747	-0.005035
33.834	0.001831	0.19882	0.01709	0.037079	0.031281	-0.041351	-0.087433	0.002441	-0.035248	-0.62271	0.000763	0.001678	0.071564	0.033417	0.010071	0.000916	0.103	0.26108	0.044098	-0.041046	0.31006	-0.090179	-0.13382	-0.24582	0.13519	-0.005798	0.009308	0.01358	-0.027618	-0.024872	-0.004425	-0.01236
33.835	0.009613	0.20889	-0.010376	0.009003	0.026245	-0.046387	-0.096283	0.003967	-0.02533	0.26245	0.004883	-0.005951	0.091553	0.1326	0.005646	-0.005035	0.14786	0.27603	0.73761	-0.12329	0.53787	-0.084534	-0.095367	-0.33691	0.017853	-0.004272	0.021057	0.013275	-0.018311	-0.026703	-0.002136	-0.010071
33.836	0.007477	0.22232	0.059357	-0.016174	-0.003052	-0.078583	-0.078888	-0.023499	-0.03006	0.9111	0.00351	-0.007324	0.082397	0.20432	0.015869	-0.004272	0.15686	0.31097	0.54855	-0.043793	0.36438	-0.074615	-0.13626	-0.27176	0.00351	-0.00351	0.006714	0.012054	-0.000916	-0.010071	-0.001984	-0.003052
33.837	0.006561	0.23209	0.1535	-0.017395	-0.037231	-0.085602	-0.057983	0.030212	-0.046692	-0.14786	-0.002136	-0.009003	0.073395	0.16007	0.022278	-0.019989	0.12802	0.33005	-0.097198	0.12314	0.034943	-0.009003	-0.099335	-0.18524	0.012207	-0.000153	0.010071	0.00351	-0.044861	-0.01709	-0.001526	-0.005646
33.838	0.010376	0.25757	0.15182	-0.007935	-0.019226	-0.11276	-0.077667	-0.015869	-0.037842	-0.59692	0.017548	0	0.046692	0.056305	0.020905	-0.01297	0.055084	0.33569	-0.16083	0.13596	-0.016479	0.042877	-0.034637	-0.18753	0.055237	-0.001221	0.026245	0.015411	-0.063019	-0.034485	0.00061	-0.010986
33.839	0.010834	0.19226	0.11643	0.005798	0.010529	-0.10986	-0.095825	-0.015106	-0.036469	-0.093384	-0.005798	0	0.014954	0.002594	-0.004578	0.007935	-0.028076	0.28046	-0.009918	0.047302	0.0383	0.079041	-0.013428	-0.06134	-0.048218	-0.006866	0.027771	0.014343	-0.055084	-0.017242	-0.006104	-0.015717
33.84	0.01236	0.21393	0.09613	0.016785	0.042725	-0.11688	-0.11108	0.003967	-0.04364	0.63538	-0.005951	0.010376	-0.011444	-0.043793	0.001831	0.007477	-0.083466	0.24262	-0.24674	0.001831	0.08728	0.11749	-0.15457	-0.014191	-0.17319	-0.002136	0.02182	0.011749	-0.058136	-0.028229	-0.002747	-0.018158
33.841	-0.000763	0.20691	0.068817	0.007935	0.054321	-0.063934	-0.14282	0.009155	-0.023956	0.82672	0.004578	0.00824	-0.03418	-0.15442	-0.005341	0.016174	-0.099182	0.33661	-0.40955	0.009918	0.42297	0.098724	-0.34103	0.10666	-0.19394	-0.002136	0.02182	0.005951	-0.055695	-0.029755	-0.002594	-0.020599
33.842	0.005951	0.17822	0.061951	-0.002747	0.028534	0.005188	-0.15274	0.005646	-0.038147	-0.11459	0	0.00885	-0.074615	-0.20065	-0.013733	0.00473	-0.096436	0.35477	-0.099945	-0.036621	0.52917	0.068512	-0.4422	0.10834	-0.15747	-0.002289	0.042725	0.016174	-0.088654	-0.039368	-0.003662	-0.019684
33.843	0.000153	0.1976	0.048065	0.00946	0.001831	-0.032043	-0.16769	0.000763	-0.024109	-0.59204	0.01358	0.000305	-0.012817	-0.15381	-0.0177	0.00412	-0.069122	0.28229	0.018463	-0.043945	0.36774	0.019073	-0.36514	0.13001	0.028687	-0.001678	0.05661	0.013733	-0.19577	-0.031891	-0.008392	-0.01236
33.844	0.005188	0.18249	0.064392	0.016327	-0.00946	-0.034485	-0.1651	0.027618	-0.036163	0.14603	-0.002594	0.001373	0.04425	-0.047455	-0.02533	0.005951	-0.057373	0.25681	-0.017853	-0.055542	0.35049	-0.050201	-0.034637	-0.005646	0.06012	-0.004883	0.06485	0.020752	-0.28549	-0.050507	-0.003662	-0.010071
33.845	0.001984	0.1593	0.059357	0.00824	-0.010376	-0.018768	-0.15945	0.005341	-0.038605	0.33798	0.010071	0.02594	0.064697	-0.044861	-0.025024	-1.1636	-0.032043	0.20966	0.053253	-0.091858	0.33157	-0.092468	0.11948	-0.14877	-0.03952	-0.005341	0.053711	0.010529	-0.061493	-0.063782	-0.002899	-0.010681
33.846	0.000305	0.17792	0.056915	0.01709	0.005646	-0.018311	-0.16907	0.007782	-0.03067	-0.50552	0.003967	0.061798	0.060272	-0.020142	-0.032654	0.24658	0.009155	0.23056	-0.27802	-0.10529	0.27649	-0.12268	0.17166	-0.11978	-0.13886	-0.018311	0.011902	0.014648	-0.12024	-0.055695	-0.00412	-0.007019
33.847	0.001373	0.18585	0.071564	0.012512	-0.006104	0.040741	-0.18204	0.009003	-0.033264	-1.0468	0.005951	0.02121	0.038452	0.10223	-0.024719	0.90225	0.044861	0.21545	-0.36072	-0.026093	0.26993	-0.12711	0.18448	-0.15717	-0.19089	-0.002594	-0.015869	0.013275	-0.13168	-0.043182	-0.002136	-0.005493
